<svg width="217" height="133" viewBox="0 0 217 133" fill="none" xmlns="http://www.w3.org/2000/svg">
<g clip-path="url(#clip0_3554_16197)">
<path d="M56.1461 65.7651C56.1461 54.2045 65.5191 44.8315 77.0797 44.8315C88.6403 44.8315 98.0133 54.2045 98.0133 65.7651V86.1003C98.0133 86.4318 97.7464 86.6987 97.4149 86.6987H86.6498C86.4911 86.6987 86.3389 86.6357 86.2267 86.5234C86.1145 86.4112 86.0515 86.259 86.0515 86.1003V65.7651C86.0515 63.9906 85.5253 62.256 84.5395 60.7806C83.5536 59.3052 82.1524 58.1553 80.513 57.4762C78.8736 56.7972 77.0697 56.6195 75.3294 56.9657C73.589 57.3119 71.9904 58.1663 70.7357 59.4211C69.4809 60.6758 68.6264 62.2744 68.2803 64.0148C67.9341 65.7551 68.1118 67.5591 68.7908 69.1984C69.4699 70.8378 70.6198 72.239 72.0952 73.2249C73.5706 74.2107 75.3052 74.7369 77.0797 74.7369H83.9581C84.2896 74.7369 84.5565 75.0038 84.5565 75.3352V86.1003C84.5565 86.4318 84.2878 86.6987 83.9581 86.6987H77.0797C65.5191 86.6987 56.1461 77.3257 56.1461 65.7651ZM131.06 48.6536C131.374 48.3885 131.35 47.8895 130.996 47.6819C127.794 45.8094 124.151 44.8254 120.442 44.8315C108.881 44.8315 99.5083 54.2045 99.5083 65.7651V86.1003C99.5083 86.4318 99.7769 86.6987 100.107 86.6987H110.872C111.203 86.6987 111.47 86.4318 111.47 86.1003V65.7651C111.47 64.2801 111.838 62.8181 112.542 61.5105C113.246 60.2029 114.263 59.0904 115.503 58.2729C116.743 57.4554 118.166 56.9584 119.645 56.8265C121.124 56.6946 122.613 56.932 123.978 57.5173C124.056 57.5516 124.141 57.5702 124.226 57.5719C124.312 57.5735 124.397 57.5583 124.476 57.527C124.556 57.4957 124.628 57.449 124.69 57.3896C124.751 57.3301 124.801 57.2591 124.834 57.1806C126.204 53.8843 128.339 50.9614 131.062 48.6536H131.06ZM145.562 44.8315C150.984 44.8241 156.196 46.9276 160.094 50.6964C160.329 50.9232 160.327 51.3 160.094 51.532L152.488 59.1396C152.371 59.2525 152.215 59.316 152.053 59.317C151.89 59.318 151.734 59.2563 151.616 59.1448C150.356 57.9932 148.794 57.2246 147.113 56.9294C145.432 56.6341 143.702 56.8244 142.126 57.478C140.549 58.1315 139.192 59.2212 138.212 60.6191C137.233 62.017 136.673 63.6652 136.598 65.3701C136.523 67.0751 136.935 68.7662 137.787 70.245C138.64 71.7237 139.896 72.9288 141.408 73.7187C142.921 74.5087 144.628 74.8508 146.328 74.7048C148.029 74.5588 149.652 73.9309 151.008 72.8947C151.128 72.8002 151.278 72.7524 151.43 72.7601C151.582 72.7678 151.726 72.8305 151.835 72.9366L159.473 80.5739C159.53 80.6297 159.575 80.6966 159.605 80.7704C159.635 80.8443 159.65 80.9235 159.648 81.0033C159.646 81.083 159.628 81.1616 159.595 81.2342C159.562 81.3067 159.514 81.3717 159.455 81.4252C155.629 84.8292 150.684 86.7063 145.562 86.6987C134.002 86.6987 124.629 77.3257 124.629 65.7651C124.629 54.2045 134.002 44.8315 145.562 44.8315Z" fill="#1E1E1C"/>
</g>
<defs>
<clipPath id="clip0_3554_16197">
<rect width="104.668" height="41.8672" fill="white" transform="translate(56.1461 44.8315)"/>
</clipPath>
</defs>
</svg>
